HIERARCHY
ROOT Hips
{
	OFFSET 0.000000 0.000000 0.000000
	CHANNELS 6 Xposition Yposition Zposition Xrotation Yrotation Zrotation
	JOINT LeftUpLeg_virtual
	{
		OFFSET 0.000000 0.000000 0.000000
		CHANNELS 3 Xrotation Yrotation Zrotation
		JOINT LeftUpLeg
		{
			OFFSET 10.205400 -3.823500 0.155100
			CHANNELS 3 Xrotation Yrotation Zrotation
			JOINT LeftLeg
			{
				OFFSET 0.708757 -12.982077 0.567790
				CHANNELS 3 Xrotation Yrotation Zrotation
				JOINT LeftFoot
				{
					OFFSET -0.708756 -10.717838 -2.184338
					CHANNELS 3 Xrotation Yrotation Zrotation
					JOINT LeftToeBase
					{
						OFFSET 0.108149 -7.191104 7.560241
						CHANNELS 3 Xrotation Yrotation Zrotation
						JOINT LeftToe_End
						{
							OFFSET 0.070230 0.081724 4.490308
							CHANNELS 3 Xrotation Yrotation Zrotation
							End Site
							{
								OFFSET 0 0 0
							}
						}
					}
				}
			}
		}
	}
	JOINT RightUpLeg_virtual
	{
		OFFSET 0.000000 0.000000 0.000000
		CHANNELS 3 Xrotation Yrotation Zrotation
		JOINT RightUpLeg
		{
			OFFSET -10.205400 -3.823500 0.005500
			CHANNELS 3 Xrotation Yrotation Zrotation
			JOINT RightLeg
			{
				OFFSET -0.708756 -12.982134 0.610632
				CHANNELS 3 Xrotation Yrotation Zrotation
				JOINT RightFoot
				{
					OFFSET 0.708754 -10.717769 -1.945823
					CHANNELS 3 Xrotation Yrotation Zrotation
					JOINT RightToeBase
					{
						OFFSET -0.108140 -7.191069 7.372968
						CHANNELS 3 Xrotation Yrotation Zrotation
						JOINT RightToe_End
						{
							OFFSET -0.070227 0.081735 4.479403
							CHANNELS 3 Xrotation Yrotation Zrotation
							End Site
							{
								OFFSET 0 0 0
							}
						}
					}
				}
			}
		}
	}
	JOINT Spine_virtual
	{
		OFFSET 0.000000 0.000000 0.000000
		CHANNELS 3 Xrotation Yrotation Zrotation
		JOINT Spine
		{
			OFFSET 0.000000 6.876099 0.125700
			CHANNELS 3 Xrotation Yrotation Zrotation
			JOINT Spine1
			{
				OFFSET 0.000000 5.730043 0.104720
				CHANNELS 3 Xrotation Yrotation Zrotation
				JOINT Spine1_split
				{
					OFFSET 0.000000 5.730043 0.104720
					CHANNELS 3 Xrotation Yrotation Zrotation
					JOINT Spine2
					{
						OFFSET 0.000000 5.730043 0.104720
						CHANNELS 3 Xrotation Yrotation Zrotation
						JOINT Neck_virtual
						{
							OFFSET 0.000000 0.000000 0.000000
							CHANNELS 3 Xrotation Yrotation Zrotation
							JOINT Neck
							{
								OFFSET 0.000000 10.314075 0.188496
								CHANNELS 3 Xrotation Yrotation Zrotation
								JOINT Head
								{
									OFFSET 0.000000 7.643700 -2.377400
									CHANNELS 3 Xrotation Yrotation Zrotation
									JOINT HeadTop_End
									{
										OFFSET 0.000000 43.788605 -13.619600
										CHANNELS 3 Xrotation Yrotation Zrotation
										End Site
										{
											OFFSET 0 0 0
										}
									}
								}
							}
						}
						JOINT LeftShoulder_virtual
						{
							OFFSET 0.000000 0.000000 0.000000
							CHANNELS 3 Xrotation Yrotation Zrotation
							JOINT LeftShoulder
							{
								OFFSET 2.196100 4.412489 0.087492
								CHANNELS 3 Xrotation Yrotation Zrotation
								JOINT LeftShoulder_split
								{
									OFFSET 2.196100 4.412489 0.087492
									CHANNELS 3 Xrotation Yrotation Zrotation
									JOINT LeftArm
									{
										OFFSET 8.771219 -2.981674 -0.026999
										CHANNELS 3 Xrotation Yrotation Zrotation
										JOINT LeftForeArm
										{
											OFFSET 8.512804 0.000000 -0.000000
											CHANNELS 3 Xrotation Yrotation Zrotation
											JOINT LeftHand
											{
												OFFSET 18.484802 0.000000 -0.000000
												CHANNELS 3 Xrotation Yrotation Zrotation
												End Site
												{
													OFFSET 0 0 0
												}
											}
										}
									}
								}
							}
						}
						JOINT RightShoulder_virtual
						{
							OFFSET 0.000000 0.000000 0.000000
							CHANNELS 3 Xrotation Yrotation Zrotation
							JOINT RightShoulder
							{
								OFFSET -2.196100 4.412496 0.070690
								CHANNELS 3 Xrotation Yrotation Zrotation
								JOINT RightShoulder_split
								{
									OFFSET -2.196100 4.412496 0.070690
									CHANNELS 3 Xrotation Yrotation Zrotation
									JOINT RightArm
									{
										OFFSET -8.771282 -2.981682 -0.094208
										CHANNELS 3 Xrotation Yrotation Zrotation
										JOINT RightForeArm
										{
											OFFSET -8.494598 0.000000 0.000000
											CHANNELS 3 Xrotation Yrotation Zrotation
											JOINT RightHand
											{
												OFFSET -18.483803 0.000000 0.000001
												CHANNELS 3 Xrotation Yrotation Zrotation
												End Site
												{
													OFFSET 0 0 0
												}
											}
										}
									}
								}
							}
						}
					}
				}
			}
		}
	}
}
MOTION
Frames: 9
Frame Time: 0.03333333
0.776865 20.032867 2.598337 0.000000 0.000000 0.000000 -3.001539 7.351226 0.069602 -91.863497 -10.049690 11.224916 86.752534 4.251546 -0.219067 15.796255 -7.310211 -10.049490 -4.174640 0.101582 0.478583 0.000000 0.000000 0.000000 -3.407458 8.169278 0.237537 -88.199974 13.225241 -13.241164 87.192938 -0.964504 -1.785844 11.073502 0.348891 10.510842 3.596117 1.858477 0.167478 0.000000 0.000000 0.000000 -2.748212 2.551361 -0.231276 10.429663 -0.400519 -3.100380 1.958174 0.695934 -0.437327 1.232540 2.152398 -0.338089 0.000000 0.000000 0.000000 1.081725 0.326697 -0.424538 -0.888429 -4.847201 1.214321 -9.613009 -0.442156 -2.005835 0.000000 0.000000 0.000000 2.141046 -0.313022 -0.466332 0.504883 -12.240291 -5.677509 -6.695779 1.459202 -3.012891 -0.224540 -16.156276 -56.213990 6.444261 -64.725960 5.309550 0.000000 0.000000 0.000000 1.306448 0.447604 0.184504 2.873101 -5.327305 8.259385 4.457729 5.156850 0.718255 -7.338624 34.396962 63.982180 -4.264367 58.260735 -0.165747 0.000000 0.000000 0.000000 
0.724820 20.014652 2.568249 0.000000 0.000000 0.000000 -3.217818 7.138232 0.145397 -91.690686 -10.110634 11.265262 86.932681 4.183849 -0.240030 16.060785 -7.232670 -9.933142 -4.281651 0.135613 0.423628 0.000000 0.000000 0.000000 -3.723927 7.963279 0.339277 -88.200152 13.142857 -13.362604 87.609983 -0.822694 -1.861655 10.950132 0.489606 10.435354 3.888843 1.873133 0.188574 0.000000 0.000000 0.000000 -3.239046 2.654866 -0.263870 10.229909 -0.513935 -3.040071 2.236254 0.696614 -0.379756 1.174933 2.090759 -0.086955 0.000000 0.000000 0.000000 1.273537 0.280417 -0.292978 -1.059067 -4.242923 1.181429 -10.167489 -0.253029 -1.990813 0.000000 0.000000 0.000000 2.257994 -0.261878 -0.442746 0.429614 -12.202101 -5.773672 -5.827088 0.070422 -2.723843 -0.694381 -16.462366 -56.574170 6.861687 -64.135886 5.404774 0.000000 0.000000 0.000000 1.535765 0.386793 0.168913 2.800088 -4.968863 8.577200 4.157594 4.872034 0.700708 -7.158163 32.735881 62.564622 -3.582253 57.147243 -0.234528 0.000000 0.000000 0.000000 
0.662397 20.006420 2.546602 0.000000 0.000000 0.000000 -3.627031 6.911833 0.335311 -91.394987 -10.026040 11.281021 87.017532 4.250003 -0.242848 16.451805 -7.099780 -9.555196 -4.334203 0.191383 0.317205 0.000000 0.000000 0.000000 -4.165084 7.703553 0.542342 -88.015204 13.048708 -13.444161 87.885724 -0.686530 -2.020704 10.991537 0.637592 10.377385 3.917735 1.864891 0.278366 0.000000 0.000000 0.000000 -3.809081 2.596667 -0.318710 9.903639 -0.722829 -2.902286 3.000475 0.621244 -0.305894 1.026081 2.078914 0.199376 0.000000 0.000000 0.000000 1.955104 0.198875 -0.204222 -1.135301 -3.650919 1.036340 -11.911874 0.154720 -2.176855 0.000000 0.000000 0.000000 2.840154 -0.212933 -0.414186 0.319787 -12.738216 -5.926542 -5.123286 -1.329124 -2.112814 -0.598344 -17.037470 -56.259595 6.972836 -64.583448 5.436607 0.000000 0.000000 0.000000 2.340825 0.296574 0.104147 2.602395 -4.090335 9.059114 3.635979 4.719483 0.411140 -6.663129 30.568819 59.808900 -2.926365 57.885655 -0.322559 0.000000 0.000000 0.000000 
0.595171 20.022045 2.530668 0.000000 0.000000 0.000000 -4.139732 6.712982 0.609994 -91.029373 -9.832780 11.256371 86.931977 4.400716 -0.196571 16.922900 -6.950863 -9.098803 -4.362350 0.260336 0.186168 0.000000 0.000000 0.000000 -4.609898 7.503483 0.812176 -87.661086 12.993591 -13.477013 87.887077 -0.592835 -2.226913 11.146816 0.746564 10.317632 3.717262 1.819185 0.418357 0.000000 0.000000 0.000000 -4.331912 2.324521 -0.344183 9.497556 -0.976254 -2.708101 4.182792 0.519476 -0.250719 0.881970 1.877239 0.560138 0.000000 0.000000 0.000000 3.071209 0.105708 -0.185461 -1.143539 -3.137409 0.711762 -14.694822 0.654937 -2.572878 0.000000 0.000000 0.000000 3.792530 -0.155080 -0.403616 0.172331 -13.798308 -6.092759 -4.666738 -2.277414 -1.689516 -0.159645 -17.424275 -54.785624 6.876891 -66.910268 5.498427 0.000000 0.000000 0.000000 3.628454 0.202709 -0.017273 2.311218 -2.757780 9.666979 2.967274 4.634704 -0.003279 -6.242152 28.229756 56.015771 -2.206517 61.562025 -0.489218 0.000000 0.000000 0.000000 
0.537125 20.059746 2.511478 0.000000 0.000000 0.000000 -4.661672 6.539202 0.932636 -90.683595 -9.550124 11.201166 86.734687 4.605328 -0.100402 17.445452 -6.833073 -8.758184 -4.404842 0.322023 0.091146 0.000000 0.000000 0.000000 -4.975099 7.449721 1.115857 -87.231904 13.012853 -13.475061 87.669392 -0.573388 -2.405824 11.395218 0.802845 10.231757 3.476694 1.748768 0.551844 0.000000 0.000000 0.000000 -4.727914 1.934559 -0.278829 8.995004 -1.235597 -2.503087 5.666012 0.415751 -0.243685 0.710610 1.791744 0.759900 0.000000 0.000000 0.000000 4.512921 0.015795 -0.250949 -0.985886 -2.743088 0.184075 -18.157341 1.171139 -3.091565 0.000000 0.000000 0.000000 5.053037 -0.105652 -0.427944 -0.001160 -15.251573 -6.254743 -4.107525 -2.919075 -1.525573 0.381273 -17.320596 -51.764296 6.947152 -71.528309 5.850765 0.000000 0.000000 0.000000 5.232297 0.116463 -0.200587 1.929499 -1.113835 10.353809 2.631092 4.531928 -0.336061 -6.445773 26.021110 51.614544 -1.383568 68.706143 -0.771120 0.000000 0.000000 0.000000 
0.491512 20.103418 2.479301 0.000000 0.000000 0.000000 -5.046621 6.415278 1.256822 -90.468902 -9.191430 11.105605 86.490754 4.836208 0.020549 17.925010 -6.781204 -8.666338 -4.470968 0.355646 0.080641 0.000000 0.000000 0.000000 -5.179203 7.475429 1.416061 -86.915134 13.127324 -13.466315 87.406552 -0.623888 -2.492510 11.697280 0.814994 10.165417 3.267794 1.669349 0.625975 0.000000 0.000000 0.000000 -4.914641 1.591546 -0.067699 8.360137 -1.463577 -2.366916 7.297271 0.323576 -0.320096 0.427252 1.763345 0.596264 0.000000 0.000000 0.000000 6.159828 -0.073564 -0.386925 -0.567373 -2.430236 -0.552477 -21.920128 1.567889 -3.623963 0.000000 0.000000 0.000000 6.507827 -0.086573 -0.499646 -0.187588 -16.762865 -6.374294 -3.389947 -3.412706 -1.475336 0.185103 -16.894382 -47.069569 7.995977 -78.441608 7.221838 0.000000 0.000000 0.000000 6.946954 0.017700 -0.428138 1.471344 0.793221 10.945714 2.648384 4.704219 -0.218574 -7.860402 23.969094 46.888566 -0.161906 78.586647 -1.484579 0.000000 0.000000 0.000000 
0.456331 20.134514 2.454569 0.000000 0.000000 0.000000 -5.086860 6.375360 1.552224 -90.505710 -8.753033 10.997402 86.254757 5.111379 0.105932 18.204396 -6.801059 -8.776404 -4.597917 0.353116 0.198720 0.000000 0.000000 0.000000 -5.111911 7.525997 1.689237 -86.861394 13.285512 -13.477271 87.244035 -0.727115 -2.475279 11.958002 0.806039 10.181164 2.998367 1.599493 0.598286 0.000000 0.000000 0.000000 -4.843087 1.349295 0.296007 7.575662 -1.656848 -2.328966 8.895298 0.218791 -0.474781 0.033559 1.697036 0.190242 0.000000 0.000000 0.000000 7.844979 -0.192264 -0.564695 0.074515 -2.189171 -1.471180 -25.734689 1.724856 -4.074694 0.000000 0.000000 0.000000 8.031246 -0.120469 -0.606199 -0.361176 -18.005374 -6.322063 -2.719559 -3.869546 -1.672124 -1.430209 -16.509279 -40.802751 19.990951 -86.900545 19.539411 0.000000 0.000000 0.000000 8.598516 -0.129647 -0.667139 0.978056 2.826360 11.218836 2.738427 5.022881 0.347585 -11.083427 22.249842 42.033698 44.044646 89.636848 -45.281811 0.000000 0.000000 0.000000 
0.435072 20.137295 2.452587 0.000000 0.000000 0.000000 -4.693452 6.364842 1.772740 -90.874772 -8.296848 10.902372 86.073327 5.469299 0.128130 18.162711 -6.854380 -8.993518 -4.784553 0.321801 0.434289 0.000000 0.000000 0.000000 -4.704735 7.552991 1.918563 -87.168602 13.488801 -13.447772 87.308785 -0.862219 -2.382757 12.044368 0.814830 10.235597 2.681954 1.561633 0.466013 0.000000 0.000000 0.000000 -4.382083 1.283896 0.727227 6.679799 -1.834547 -2.395138 10.321623 0.078575 -0.673580 -0.092713 1.670042 -0.271802 0.000000 0.000000 0.000000 9.360530 -0.371840 -0.719115 0.877941 -2.000096 -2.476230 -29.404504 1.501483 -4.397264 0.000000 0.000000 0.000000 9.458539 -0.242562 -0.726030 -0.481201 -18.667559 -5.930281 -2.164933 -4.325816 -1.661409 -5.264790 -16.772122 -33.384510 172.606885 -84.112933 172.430229 0.000000 0.000000 0.000000 10.057285 -0.334784 -0.876845 0.492741 4.803334 10.888320 2.930975 5.167241 1.052969 -16.535364 20.917547 37.164019 178.550612 79.719140 -179.585863 0.000000 0.000000 0.000000 
0.435626 20.114254 2.478170 0.000000 0.000000 0.000000 -3.802295 6.374354 1.913917 -91.629050 -8.002597 10.782963 86.021813 5.840133 0.139126 17.861915 -6.940748 -9.329769 -4.967332 0.280688 0.700366 0.000000 0.000000 0.000000 -3.857899 7.514213 2.085780 -87.874147 13.774570 -13.313294 87.636224 -1.031359 -2.232862 11.866261 0.816668 10.231357 2.422476 1.566161 0.284845 0.000000 0.000000 0.000000 -3.410245 1.379988 1.116591 5.749523 -1.997975 -2.518390 11.515539 -0.097150 -0.876812 -0.055208 1.419224 -0.378125 0.000000 0.000000 0.000000 10.621099 -0.609275 -0.798034 1.759679 -1.831090 -3.370473 -32.903012 0.966511 -4.629165 0.000000 0.000000 0.000000 10.692959 -0.458001 -0.826266 -0.501340 -18.595794 -5.002666 -1.938227 -4.402780 -1.532615 -11.445983 -18.107506 -25.344851 176.911052 -76.575443 176.996197 0.000000 0.000000 0.000000 11.240958 -0.616508 -1.029712 0.104884 6.521522 9.782328 2.893464 5.015887 1.714233 -24.243845 20.329061 32.519422 179.814661 71.050169 179.195737 0.000000 0.000000 0.000000 
